<svg width="21.000000" height="21.000000" viewBox="0 0 21 21" fill="none" xmlns="http://www.w3.org/2000/svg" xmlns:xlink="http://www.w3.org/1999/xlink">
	<desc>
			Created with Pixso.
	</desc>
	<defs/>
	<path id="Vector" d="M10 0C15.52 0 20 4.47 20 10C20 15.52 15.52 20 10 20C4.47 20 0 15.52 0 10L2 10C2 11.88 2.66 13.7 3.87 15.14C5.08 16.58 6.76 17.55 8.61 17.87C10.46 18.2 12.37 17.86 14 16.92C15.63 15.98 16.87 14.49 17.51 12.73C18.16 10.96 18.16 9.02 17.51 7.25C16.87 5.48 15.62 4 13.99 3.06C12.36 2.12 10.45 1.79 8.6 2.12C6.74 2.45 5.07 3.42 3.86 4.86L6 7L0 7L0 1L2.44 3.44C3.38 2.36 4.54 1.49 5.84 0.9C7.15 0.3 8.56 -0.01 10 0Z" fill="#FFFFFF" fill-opacity="1.000000" fill-rule="nonzero"/>
	<path id="Vector" d="M20 10C20 15.52 15.52 20 10 20C4.47 20 0 15.52 0 10L2 10C2 11.88 2.66 13.7 3.87 15.14C5.08 16.58 6.76 17.55 8.61 17.87C10.46 18.2 12.37 17.86 14 16.92C15.63 15.98 16.87 14.49 17.51 12.73C18.16 10.96 18.16 9.02 17.51 7.25C16.87 5.48 15.62 4 13.99 3.06C12.36 2.12 10.45 1.79 8.6 2.12C6.74 2.45 5.07 3.42 3.86 4.86L6 7L0 7L0 1L2.44 3.44C3.38 2.36 4.54 1.49 5.84 0.9C7.15 0.3 8.56 -0.01 10 0C15.52 0 20 4.47 20 10Z" stroke="#FFFFFF" stroke-opacity="1.000000" stroke-width="1.000000"/>
</svg>
