<svg width="284.000000" height="282.000000" viewBox="0 0 284 282" fill="none" xmlns="http://www.w3.org/2000/svg" xmlns:xlink="http://www.w3.org/1999/xlink">
	<desc>
			Created with Pixso.
	</desc>
	<defs>
		<clipPath id="clip20_12695">
			<rect id="Frame 128893" width="284.000000" height="282.000000" fill="white" fill-opacity="0"/>
		</clipPath>
		<radialGradient id="paint_radial_20_12695_0" cx="0.000000" cy="0.000000" r="1.000000" gradientUnits="userSpaceOnUse" gradientTransform="translate(141.187 336.326) rotate(-90.3109) scale(385.267 388.134)">
			<stop offset="0.367962" stop-color="#FCFCFC"/>
			<stop offset="1.000000" stop-color="#D2E7FF"/>
		</radialGradient>
		<linearGradient id="paint_linear_20_12710_0" x1="38.361855" y1="90.879860" x2="39.576027" y2="116.635147" gradientUnits="userSpaceOnUse">
			<stop stop-color="#632E40"/>
			<stop offset="1.000000" stop-color="#48202D"/>
		</linearGradient>
		<linearGradient id="paint_linear_20_12713_0" x1="65.348953" y1="213.427902" x2="65.278946" y2="197.246231" gradientUnits="userSpaceOnUse">
			<stop stop-color="#BED2E8"/>
			<stop offset="1.000000" stop-color="#CEE0F3"/>
		</linearGradient>
		<linearGradient id="paint_linear_20_12714_0" x1="67.279480" y1="191.717102" x2="65.798889" y2="184.895050" gradientUnits="userSpaceOnUse">
			<stop stop-color="#105B91"/>
			<stop offset="1.000000" stop-color="#0A3C5F"/>
		</linearGradient>
		<linearGradient id="paint_linear_20_12717_0" x1="53.386139" y1="176.915649" x2="52.503860" y2="147.509109" gradientUnits="userSpaceOnUse">
			<stop stop-color="#105B91"/>
			<stop offset="1.000000" stop-color="#0A3C5F"/>
		</linearGradient>
		<linearGradient id="paint_linear_20_12718_0" x1="83.469711" y1="176.015945" x2="82.592010" y2="146.609406" gradientUnits="userSpaceOnUse">
			<stop stop-color="#105B91"/>
			<stop offset="1.000000" stop-color="#0A3C5F"/>
		</linearGradient>
		<linearGradient id="paint_linear_20_12719_0" x1="68.000168" y1="129.973663" x2="67.698753" y2="149.448456" gradientUnits="userSpaceOnUse">
			<stop stop-color="#31ADCC"/>
			<stop offset="1.000000" stop-color="#198AA6"/>
		</linearGradient>
		<linearGradient id="paint_linear_20_12720_0" x1="65.588905" y1="174.089691" x2="65.256981" y2="179.540375" gradientUnits="userSpaceOnUse">
			<stop stop-color="#31ADCC"/>
			<stop offset="1.000000" stop-color="#198AA6"/>
		</linearGradient>
		<linearGradient id="paint_linear_20_12721_0" x1="216.325516" y1="223.278610" x2="206.699509" y2="220.653625" gradientUnits="userSpaceOnUse">
			<stop stop-color="#105B91"/>
			<stop offset="1.000000" stop-color="#0A3C5F"/>
		</linearGradient>
		<linearGradient id="paint_linear_20_12722_0" x1="65.476105" y1="200.391022" x2="65.122345" y2="217.031311" gradientUnits="userSpaceOnUse">
			<stop stop-color="#31ADCC"/>
			<stop offset="1.000000" stop-color="#198AA6"/>
		</linearGradient>
		<linearGradient id="paint_linear_20_12723_0" x1="139.880585" y1="255.587585" x2="134.504150" y2="253.032593" gradientUnits="userSpaceOnUse">
			<stop stop-color="#105B91"/>
			<stop offset="1.000000" stop-color="#0A3C5F"/>
		</linearGradient>
		<linearGradient id="paint_linear_20_12724_0" x1="61.392067" y1="155.257202" x2="65.165604" y2="173.657593" gradientUnits="userSpaceOnUse">
			<stop stop-color="#105B91"/>
			<stop offset="1.000000" stop-color="#0A3C5F"/>
		</linearGradient>
		<linearGradient id="paint_linear_20_12726_0" x1="83.932739" y1="221.586716" x2="75.678116" y2="219.167114" gradientUnits="userSpaceOnUse">
			<stop stop-color="#072C47"/>
			<stop offset="1.000000" stop-color="#104E7A"/>
		</linearGradient>
		<linearGradient id="paint_linear_20_12727_0" x1="86.784348" y1="176.810974" x2="56.648460" y2="208.877335" gradientUnits="userSpaceOnUse">
			<stop stop-color="#E8A476"/>
			<stop offset="1.000000" stop-color="#F1B287"/>
		</linearGradient>
		<linearGradient id="paint_linear_20_12728_0" x1="95.436081" y1="160.174789" x2="65.029427" y2="201.897690" gradientUnits="userSpaceOnUse">
			<stop stop-color="#CF8D61"/>
			<stop offset="1.000000" stop-color="#E8A476"/>
		</linearGradient>
		<linearGradient id="paint_linear_20_12729_0" x1="71.341431" y1="222.206818" x2="63.091198" y2="219.787216" gradientUnits="userSpaceOnUse">
			<stop stop-color="#072C47"/>
			<stop offset="1.000000" stop-color="#104E7A"/>
		</linearGradient>
		<linearGradient id="paint_linear_20_12730_0" x1="75.747803" y1="176.234268" x2="44.332230" y2="211.004120" gradientUnits="userSpaceOnUse">
			<stop stop-color="#E8A476"/>
			<stop offset="1.000000" stop-color="#F1B287"/>
		</linearGradient>
		<linearGradient id="paint_linear_20_12731_0" x1="84.137512" y1="159.563278" x2="52.900993" y2="203.867401" gradientUnits="userSpaceOnUse">
			<stop stop-color="#CF8D61"/>
			<stop offset="1.000000" stop-color="#E8A476"/>
		</linearGradient>
		<linearGradient id="paint_linear_20_12732_0" x1="72.114777" y1="125.247734" x2="59.339775" y2="153.077606" gradientUnits="userSpaceOnUse">
			<stop stop-color="#257BCC"/>
			<stop offset="1.000000" stop-color="#0E4170"/>
		</linearGradient>
		<linearGradient id="paint_linear_20_12734_0" x1="45.302170" y1="171.128815" x2="78.303185" y2="134.839081" gradientUnits="userSpaceOnUse">
			<stop stop-color="#BED2E8"/>
			<stop offset="1.000000" stop-color="#CEE0F3"/>
		</linearGradient>
		<linearGradient id="paint_linear_20_12742_0" x1="30.076904" y1="168.385895" x2="31.277924" y2="216.515991" gradientUnits="userSpaceOnUse">
			<stop stop-color="#105B91"/>
			<stop offset="1.000000" stop-color="#0A3C5F"/>
		</linearGradient>
		<linearGradient id="paint_linear_20_12743_0" x1="178.427979" y1="168.385574" x2="179.633484" y2="216.515671" gradientUnits="userSpaceOnUse">
			<stop stop-color="#105B91"/>
			<stop offset="1.000000" stop-color="#0A3C5F"/>
		</linearGradient>
		<linearGradient id="paint_linear_20_12744_0" x1="107.499603" y1="144.595734" x2="105.071251" y2="155.890182" gradientUnits="userSpaceOnUse">
			<stop stop-color="#31ADCC"/>
			<stop offset="1.000000" stop-color="#198AA6"/>
		</linearGradient>
		<linearGradient id="paint_linear_20_12748_0" x1="65.252388" y1="110.699852" x2="66.811600" y2="115.268288" gradientUnits="userSpaceOnUse">
			<stop stop-color="#E8A476"/>
			<stop offset="1.000000" stop-color="#F1B287"/>
		</linearGradient>
		<linearGradient id="paint_linear_20_12749_0" x1="65.934372" y1="109.502876" x2="65.685425" y2="110.778198" gradientUnits="userSpaceOnUse">
			<stop stop-color="#CF8D61"/>
			<stop offset="1.000000" stop-color="#E8A476"/>
		</linearGradient>
		<linearGradient id="paint_linear_20_12751_0" x1="63.435890" y1="101.663246" x2="69.624680" y2="101.934036" gradientUnits="userSpaceOnUse">
			<stop stop-color="#E8A476"/>
			<stop offset="1.000000" stop-color="#F1B287"/>
		</linearGradient>
		<linearGradient id="paint_linear_20_12754_0" x1="69.414505" y1="116.648399" x2="68.265854" y2="137.699860" gradientUnits="userSpaceOnUse">
			<stop stop-color="#105B91"/>
			<stop offset="1.000000" stop-color="#0A3C5F"/>
		</linearGradient>
		<linearGradient id="paint_linear_20_12759_0" x1="92.331741" y1="142.573959" x2="73.402878" y2="130.641876" gradientUnits="userSpaceOnUse">
			<stop stop-color="#BED2E8"/>
			<stop offset="1.000000" stop-color="#CEE0F3"/>
		</linearGradient>
		<linearGradient id="paint_linear_20_12763_0" x1="37.047707" y1="141.866302" x2="55.679573" y2="130.156982" gradientUnits="userSpaceOnUse">
			<stop stop-color="#BED2E8"/>
			<stop offset="1.000000" stop-color="#CEE0F3"/>
		</linearGradient>
		<linearGradient id="paint_linear_20_12769_0" x1="65.728455" y1="140.211258" x2="65.562500" y2="152.658722" gradientUnits="userSpaceOnUse">
			<stop stop-color="#31ADCC"/>
			<stop offset="1.000000" stop-color="#198AA6"/>
		</linearGradient>
		<linearGradient id="paint_linear_20_12775_0" x1="60.836945" y1="136.713074" x2="60.653507" y2="139.163254" gradientUnits="userSpaceOnUse">
			<stop stop-color="#298BE6"/>
			<stop offset="1.000000" stop-color="#1761A6"/>
		</linearGradient>
		<linearGradient id="paint_linear_20_12796_0" x1="71.276115" y1="137.158493" x2="71.485756" y2="138.682739" gradientUnits="userSpaceOnUse">
			<stop stop-color="#632E40"/>
			<stop offset="1.000000" stop-color="#48202D"/>
		</linearGradient>
		<linearGradient id="paint_linear_20_12798_0" x1="71.900490" y1="138.429337" x2="71.786934" y2="139.211121" gradientUnits="userSpaceOnUse">
			<stop stop-color="#31ADCC"/>
			<stop offset="1.000000" stop-color="#198AA6"/>
		</linearGradient>
		<linearGradient id="paint_linear_20_12803_0" x1="71.807411" y1="138.180603" x2="71.886024" y2="138.503815" gradientUnits="userSpaceOnUse">
			<stop stop-color="#E8A476"/>
			<stop offset="1.000000" stop-color="#F1B287"/>
		</linearGradient>
		<linearGradient id="paint_linear_20_12804_0" x1="71.859650" y1="138.084534" x2="71.820335" y2="138.167526" gradientUnits="userSpaceOnUse">
			<stop stop-color="#CF8D61"/>
			<stop offset="1.000000" stop-color="#E8A476"/>
		</linearGradient>
		<linearGradient id="paint_linear_20_12806_0" x1="71.982506" y1="137.625824" x2="72.174675" y2="137.774323" gradientUnits="userSpaceOnUse">
			<stop stop-color="#E8A476"/>
			<stop offset="1.000000" stop-color="#F1B287"/>
		</linearGradient>
		<linearGradient id="paint_linear_20_12843_0" x1="47.935833" y1="139.678528" x2="54.469624" y2="146.221069" gradientUnits="userSpaceOnUse">
			<stop stop-color="#F7975F"/>
			<stop offset="1.000000" stop-color="#FAB07E"/>
		</linearGradient>
		<linearGradient id="paint_linear_20_12847_0" x1="120.257034" y1="110.459595" x2="121.244095" y2="108.026886" gradientUnits="userSpaceOnUse">
			<stop stop-color="#E8A476"/>
			<stop offset="1.000000" stop-color="#F1B287"/>
		</linearGradient>
		<linearGradient id="paint_linear_20_12849_0" x1="145.859589" y1="135.852203" x2="141.251831" y2="114.988564" gradientUnits="userSpaceOnUse">
			<stop stop-color="#D2EEFC"/>
			<stop offset="1.000000" stop-color="#C3E6F7"/>
		</linearGradient>
		<linearGradient id="paint_linear_20_12850_0" x1="142.675903" y1="119.924019" x2="151.585648" y2="128.362076" gradientUnits="userSpaceOnUse">
			<stop stop-color="#D2EEFC"/>
			<stop offset="1.000000" stop-color="#C3E6F7"/>
		</linearGradient>
		<linearGradient id="paint_linear_20_12852_0" x1="181.250153" y1="157.685638" x2="171.776978" y2="177.308914" gradientUnits="userSpaceOnUse">
			<stop stop-color="#105B91"/>
			<stop offset="1.000000" stop-color="#0A3C5F"/>
		</linearGradient>
		<linearGradient id="paint_linear_20_12853_0" x1="177.768799" y1="141.442688" x2="175.619980" y2="161.223206" gradientUnits="userSpaceOnUse">
			<stop stop-color="#31ADCC"/>
			<stop offset="1.000000" stop-color="#198AA6"/>
		</linearGradient>
		<linearGradient id="paint_linear_20_12855_0" x1="153.100632" y1="221.608398" x2="153.179138" y2="203.631699" gradientUnits="userSpaceOnUse">
			<stop stop-color="#BED2E8"/>
			<stop offset="1.000000" stop-color="#CEE0F3"/>
		</linearGradient>
		<linearGradient id="paint_linear_20_12856_0" x1="150.951935" y1="197.482330" x2="152.598495" y2="189.904694" gradientUnits="userSpaceOnUse">
			<stop stop-color="#105B91"/>
			<stop offset="1.000000" stop-color="#0A3C5F"/>
		</linearGradient>
		<linearGradient id="paint_linear_20_12857_0" x1="152.830444" y1="177.898468" x2="153.197311" y2="183.951859" gradientUnits="userSpaceOnUse">
			<stop stop-color="#31ADCC"/>
			<stop offset="1.000000" stop-color="#198AA6"/>
		</linearGradient>
		<linearGradient id="paint_linear_20_12858_0" x1="-14.668549" y1="232.554092" x2="-3.972498" y2="229.640915" gradientUnits="userSpaceOnUse">
			<stop stop-color="#105B91"/>
			<stop offset="1.000000" stop-color="#0A3C5F"/>
		</linearGradient>
		<linearGradient id="paint_linear_20_12859_0" x1="152.956589" y1="207.121475" x2="153.349655" y2="225.617905" gradientUnits="userSpaceOnUse">
			<stop stop-color="#31ADCC"/>
			<stop offset="1.000000" stop-color="#198AA6"/>
		</linearGradient>
		<linearGradient id="paint_linear_20_12860_0" x1="70.279526" y1="268.462769" x2="76.249947" y2="265.619537" gradientUnits="userSpaceOnUse">
			<stop stop-color="#105B91"/>
			<stop offset="1.000000" stop-color="#0A3C5F"/>
		</linearGradient>
		<linearGradient id="paint_linear_20_12866_0" x1="123.510773" y1="210.807632" x2="120.313744" y2="221.962280" gradientUnits="userSpaceOnUse">
			<stop stop-color="#E8A476"/>
			<stop offset="1.000000" stop-color="#F1B287"/>
		</linearGradient>
		<linearGradient id="paint_linear_20_12867_0" x1="125.918442" y1="175.954865" x2="148.354401" y2="253.334259" gradientUnits="userSpaceOnUse">
			<stop stop-color="#CF8D61"/>
			<stop offset="1.000000" stop-color="#E8A476"/>
		</linearGradient>
		<linearGradient id="paint_linear_20_12868_0" x1="123.122932" y1="236.195984" x2="145.515244" y2="220.673813" gradientUnits="userSpaceOnUse">
			<stop stop-color="#105B91"/>
			<stop offset="1.000000" stop-color="#0A3C5F"/>
		</linearGradient>
		<linearGradient id="paint_linear_20_12870_0" x1="110.740181" y1="203.199417" x2="104.774139" y2="215.498352" gradientUnits="userSpaceOnUse">
			<stop stop-color="#E8A476"/>
			<stop offset="1.000000" stop-color="#F1B287"/>
		</linearGradient>
		<linearGradient id="paint_linear_20_12871_0" x1="131.035660" y1="160.179321" x2="104.647110" y2="226.679214" gradientUnits="userSpaceOnUse">
			<stop stop-color="#CF8D61"/>
			<stop offset="1.000000" stop-color="#E8A476"/>
		</linearGradient>
		<linearGradient id="paint_linear_20_12872_0" x1="82.024406" y1="224.630768" x2="108.198952" y2="229.199203" gradientUnits="userSpaceOnUse">
			<stop stop-color="#105B91"/>
			<stop offset="1.000000" stop-color="#0A3C5F"/>
		</linearGradient>
		<linearGradient id="paint_linear_20_12874_0" x1="177.987045" y1="93.164162" x2="176.790359" y2="117.971703" gradientUnits="userSpaceOnUse">
			<stop stop-color="#632E40"/>
			<stop offset="1.000000" stop-color="#48202D"/>
		</linearGradient>
		<linearGradient id="paint_linear_20_12876_0" x1="186.268204" y1="159.563797" x2="116.466476" y2="175.313080" gradientUnits="userSpaceOnUse">
			<stop stop-color="#105B91"/>
			<stop offset="1.000000" stop-color="#0A3C5F"/>
		</linearGradient>
		<linearGradient id="paint_linear_20_12878_0" x1="171.462280" y1="123.439781" x2="155.153961" y2="149.286804" gradientUnits="userSpaceOnUse">
			<stop stop-color="#D2EEFC"/>
			<stop offset="1.000000" stop-color="#C3E6F7"/>
		</linearGradient>
		<linearGradient id="paint_linear_20_12879_0" x1="174.912521" y1="133.882401" x2="170.060211" y2="157.449585" gradientUnits="userSpaceOnUse">
			<stop stop-color="#D2EEFC"/>
			<stop offset="1.000000" stop-color="#C3E6F7"/>
		</linearGradient>
		<linearGradient id="paint_linear_20_12882_0" x1="165.373245" y1="111.866089" x2="163.831512" y2="116.312241" gradientUnits="userSpaceOnUse">
			<stop stop-color="#E8A476"/>
			<stop offset="1.000000" stop-color="#F1B287"/>
		</linearGradient>
		<linearGradient id="paint_linear_20_12883_0" x1="164.661118" y1="110.739235" x2="164.910065" y2="112.014557" gradientUnits="userSpaceOnUse">
			<stop stop-color="#CF8D61"/>
			<stop offset="1.000000" stop-color="#E8A476"/>
		</linearGradient>
		<linearGradient id="paint_linear_20_12885_0" x1="167.159653" y1="102.903679" x2="160.970871" y2="103.174461" gradientUnits="userSpaceOnUse">
			<stop stop-color="#E8A476"/>
			<stop offset="1.000000" stop-color="#F1B287"/>
		</linearGradient>
		<linearGradient id="paint_linear_20_12889_0" x1="157.743515" y1="141.870529" x2="168.666672" y2="162.279953" gradientUnits="userSpaceOnUse">
			<stop stop-color="#257BCC"/>
			<stop offset="1.000000" stop-color="#0E4170"/>
		</linearGradient>
		<linearGradient id="paint_linear_20_12890_0" x1="154.236221" y1="143.014969" x2="166.578827" y2="160.113770" gradientUnits="userSpaceOnUse">
			<stop stop-color="#105B91"/>
			<stop offset="1.000000" stop-color="#0A3C5F"/>
		</linearGradient>
		<linearGradient id="paint_linear_20_12892_0" x1="158.787018" y1="155.899277" x2="157.747543" y2="152.920639" gradientUnits="userSpaceOnUse">
			<stop stop-color="#E8A476"/>
			<stop offset="1.000000" stop-color="#F1B287"/>
		</linearGradient>
		<linearGradient id="paint_linear_20_12893_0" x1="159.001236" y1="157.449371" x2="158.844009" y2="156.457947" gradientUnits="userSpaceOnUse">
			<stop stop-color="#CF8D61"/>
			<stop offset="1.000000" stop-color="#E8A476"/>
		</linearGradient>
		<linearGradient id="paint_linear_20_12895_0" x1="168.089905" y1="125.029366" x2="175.016785" y2="147.102814" gradientUnits="userSpaceOnUse">
			<stop stop-color="#D2EEFC"/>
			<stop offset="1.000000" stop-color="#C3E6F7"/>
		</linearGradient>
		<linearGradient id="paint_linear_20_12896_0" x1="163.298798" y1="154.772202" x2="183.079300" y2="147.238235" gradientUnits="userSpaceOnUse">
			<stop stop-color="#D2EEFC"/>
			<stop offset="1.000000" stop-color="#C3E6F7"/>
		</linearGradient>
		<linearGradient id="paint_linear_20_12903_0" x1="253.204636" y1="185.458435" x2="249.404861" y2="149.662216" gradientUnits="userSpaceOnUse">
			<stop stop-color="#31ADCC"/>
			<stop offset="1.000000" stop-color="#198AA6"/>
		</linearGradient>
		<linearGradient id="paint_linear_20_12904_0" x1="252.461929" y1="160.786301" x2="247.290787" y2="183.829391" gradientUnits="userSpaceOnUse">
			<stop stop-color="#31ADCC"/>
			<stop offset="1.000000" stop-color="#198AA6"/>
		</linearGradient>
		<linearGradient id="paint_linear_20_12905_0" x1="253.073135" y1="184.213623" x2="249.395645" y2="149.539902" gradientUnits="userSpaceOnUse">
			<stop stop-color="#31ADCC"/>
			<stop offset="1.000000" stop-color="#198AA6"/>
		</linearGradient>
		<linearGradient id="paint_linear_20_12908_0" x1="204.376251" y1="158.611160" x2="232.450714" y2="140.769852" gradientUnits="userSpaceOnUse">
			<stop stop-color="#31ADCC"/>
			<stop offset="1.000000" stop-color="#198AA6"/>
		</linearGradient>
		<linearGradient id="paint_linear_20_12909_0" x1="225.737457" y1="142.626312" x2="208.708466" y2="163.756378" gradientUnits="userSpaceOnUse">
			<stop stop-color="#31ADCC"/>
			<stop offset="1.000000" stop-color="#198AA6"/>
		</linearGradient>
		<linearGradient id="paint_linear_20_12910_0" x1="211.861816" y1="151.715088" x2="233.655762" y2="137.865692" gradientUnits="userSpaceOnUse">
			<stop stop-color="#31ADCC"/>
			<stop offset="1.000000" stop-color="#198AA6"/>
		</linearGradient>
		<linearGradient id="paint_linear_20_12913_0" x1="214.018997" y1="121.557358" x2="239.625778" y2="100.715546" gradientUnits="userSpaceOnUse">
			<stop stop-color="#31ADCC"/>
			<stop offset="1.000000" stop-color="#198AA6"/>
		</linearGradient>
		<linearGradient id="paint_linear_20_12914_0" x1="233.148941" y1="103.349091" x2="218.683716" y2="126.352814" gradientUnits="userSpaceOnUse">
			<stop stop-color="#31ADCC"/>
			<stop offset="1.000000" stop-color="#198AA6"/>
		</linearGradient>
		<linearGradient id="paint_linear_20_12915_0" x1="244.303558" y1="101.916397" x2="237.066559" y2="121.972061" gradientUnits="userSpaceOnUse">
			<stop stop-color="#31ADCC"/>
			<stop offset="1.000000" stop-color="#198AA6"/>
		</linearGradient>
		<linearGradient id="paint_linear_20_12918_0" x1="281.401184" y1="152.143066" x2="261.328033" y2="125.924843" gradientUnits="userSpaceOnUse">
			<stop stop-color="#31ADCC"/>
			<stop offset="1.000000" stop-color="#198AA6"/>
		</linearGradient>
		<linearGradient id="paint_linear_20_12919_0" x1="263.743988" y1="132.436905" x2="286.297852" y2="147.570374" gradientUnits="userSpaceOnUse">
			<stop stop-color="#31ADCC"/>
			<stop offset="1.000000" stop-color="#198AA6"/>
		</linearGradient>
		<linearGradient id="paint_linear_20_12920_0" x1="270.224701" y1="147.928528" x2="261.961334" y2="122.823997" gradientUnits="userSpaceOnUse">
			<stop stop-color="#31ADCC"/>
			<stop offset="1.000000" stop-color="#198AA6"/>
		</linearGradient>
		<linearGradient id="paint_linear_20_12922_0" x1="279.204895" y1="97.112259" x2="250.676224" y2="86.538483" gradientUnits="userSpaceOnUse">
			<stop stop-color="#31ADCC"/>
			<stop offset="1.000000" stop-color="#198AA6"/>
		</linearGradient>
		<linearGradient id="paint_linear_20_12923_0" x1="257.655182" y1="87.246231" x2="275.810974" y2="101.973541" gradientUnits="userSpaceOnUse">
			<stop stop-color="#31ADCC"/>
			<stop offset="1.000000" stop-color="#198AA6"/>
		</linearGradient>
		<linearGradient id="paint_linear_20_12929_0" x1="255.003937" y1="201.448013" x2="257.109100" y2="226.963089" gradientUnits="userSpaceOnUse">
			<stop stop-color="#105B91"/>
			<stop offset="1.000000" stop-color="#0A3C5F"/>
		</linearGradient>
		<linearGradient id="paint_linear_20_12931_0" x1="254.489105" y1="195.490585" x2="254.978271" y2="201.316879" gradientUnits="userSpaceOnUse">
			<stop stop-color="#105B91"/>
			<stop offset="1.000000" stop-color="#0A3C5F"/>
		</linearGradient>
		<linearGradient id="paint_linear_20_12940_0" x1="124.649315" y1="228.499207" x2="104.672203" y2="226.411514" gradientUnits="userSpaceOnUse">
			<stop stop-color="#072C47"/>
			<stop offset="1.000000" stop-color="#104E7A"/>
		</linearGradient>
		<linearGradient id="paint_linear_20_12941_0" x1="125.882980" y1="166.750015" x2="103.350235" y2="217.462173" gradientUnits="userSpaceOnUse">
			<stop stop-color="#E8A476"/>
			<stop offset="1.000000" stop-color="#F1B287"/>
		</linearGradient>
		<linearGradient id="paint_linear_20_12942_0" x1="149.022934" y1="259.189148" x2="126.904129" y2="166.565582" gradientUnits="userSpaceOnUse">
			<stop stop-color="#CF8D61"/>
			<stop offset="1.000000" stop-color="#E8A476"/>
		</linearGradient>
		<linearGradient id="paint_linear_20_12944_0" x1="158.552155" y1="230.195618" x2="150.169861" y2="227.738983" gradientUnits="userSpaceOnUse">
			<stop stop-color="#072C47"/>
			<stop offset="1.000000" stop-color="#104E7A"/>
		</linearGradient>
		<linearGradient id="paint_linear_20_12945_0" x1="149.823578" y1="165.305923" x2="120.150429" y2="196.909378" gradientUnits="userSpaceOnUse">
			<stop stop-color="#E8A476"/>
			<stop offset="1.000000" stop-color="#F1B287"/>
		</linearGradient>
		<linearGradient id="paint_linear_20_12946_0" x1="158.534332" y1="149.828156" x2="126.782471" y2="192.216522" gradientUnits="userSpaceOnUse">
			<stop stop-color="#CF8D61"/>
			<stop offset="1.000000" stop-color="#E8A476"/>
		</linearGradient>
		<linearGradient id="paint_linear_20_12947_0" x1="120.154434" y1="134.233231" x2="122.552612" y2="166.921005" gradientUnits="userSpaceOnUse">
			<stop stop-color="#105B91"/>
			<stop offset="1.000000" stop-color="#0A3C5F"/>
		</linearGradient>
		<linearGradient id="paint_linear_20_12949_0" x1="105.468987" y1="107.133530" x2="95.939354" y2="110.256088" gradientUnits="userSpaceOnUse">
			<stop stop-color="#CF8D61"/>
			<stop offset="1.000000" stop-color="#E8A476"/>
		</linearGradient>
		<linearGradient id="paint_linear_20_12950_0" x1="108.578163" y1="109.882835" x2="92.996880" y2="114.170723" gradientUnits="userSpaceOnUse">
			<stop stop-color="#CF8D61"/>
			<stop offset="1.000000" stop-color="#E8A476"/>
		</linearGradient>
		<linearGradient id="paint_linear_20_12951_0" x1="107.557091" y1="107.745483" x2="84.740906" y2="112.699265" gradientUnits="userSpaceOnUse">
			<stop stop-color="#D2EEFC"/>
			<stop offset="1.000000" stop-color="#C3E6F7"/>
		</linearGradient>
		<linearGradient id="paint_linear_20_12952_0" x1="98.391716" y1="115.615356" x2="95.048714" y2="112.978737" gradientUnits="userSpaceOnUse">
			<stop stop-color="#E8A476"/>
			<stop offset="1.000000" stop-color="#F1B287"/>
		</linearGradient>
		<linearGradient id="paint_linear_20_12954_0" x1="139.151306" y1="72.911713" x2="131.569916" y2="81.676437" gradientUnits="userSpaceOnUse">
			<stop stop-color="#632E40"/>
			<stop offset="1.000000" stop-color="#48202D"/>
		</linearGradient>
		<linearGradient id="paint_linear_20_12955_0" x1="151.025009" y1="113.109146" x2="118.170746" y2="150.836212" gradientUnits="userSpaceOnUse">
			<stop stop-color="#D2EEFC"/>
			<stop offset="1.000000" stop-color="#C3E6F7"/>
		</linearGradient>
		<linearGradient id="paint_linear_20_12956_0" x1="182.452545" y1="104.141823" x2="89.851479" y2="174.561005" gradientUnits="userSpaceOnUse">
			<stop stop-color="#D2EEFC"/>
			<stop offset="1.000000" stop-color="#C3E6F7"/>
		</linearGradient>
		<linearGradient id="paint_linear_20_12959_0" x1="127.826431" y1="75.134605" x2="130.867996" y2="75.742020" gradientUnits="userSpaceOnUse">
			<stop stop-color="#E8A476"/>
			<stop offset="1.000000" stop-color="#F1B287"/>
		</linearGradient>
		<linearGradient id="paint_linear_20_12960_0" x1="128.222366" y1="72.624107" x2="128.397842" y2="74.171883" gradientUnits="userSpaceOnUse">
			<stop stop-color="#CF8D61"/>
			<stop offset="1.000000" stop-color="#E8A476"/>
		</linearGradient>
		<linearGradient id="paint_linear_20_12962_0" x1="123.961861" y1="64.489067" x2="130.404922" y2="65.492424" gradientUnits="userSpaceOnUse">
			<stop stop-color="#E8A476"/>
			<stop offset="1.000000" stop-color="#F1B287"/>
		</linearGradient>
		<linearGradient id="paint_linear_20_12964_0" x1="128.118896" y1="78.720337" x2="125.464294" y2="87.548050" gradientUnits="userSpaceOnUse">
			<stop stop-color="#31ADCC"/>
			<stop offset="1.000000" stop-color="#198AA6"/>
		</linearGradient>
		<linearGradient id="paint_linear_20_12968_0" x1="122.584206" y1="112.074043" x2="110.899391" y2="112.793945" gradientUnits="userSpaceOnUse">
			<stop stop-color="#E8A476"/>
			<stop offset="1.000000" stop-color="#F1B287"/>
		</linearGradient>
		<linearGradient id="paint_linear_20_12970_0" x1="143.488220" y1="96.591934" x2="131.659439" y2="115.732162" gradientUnits="userSpaceOnUse">
			<stop stop-color="#D2EEFC"/>
			<stop offset="1.000000" stop-color="#C3E6F7"/>
		</linearGradient>
		<linearGradient id="paint_linear_20_12971_0" x1="146.269623" y1="95.067055" x2="95.507957" y2="119.858459" gradientUnits="userSpaceOnUse">
			<stop stop-color="#D2EEFC"/>
			<stop offset="1.000000" stop-color="#C3E6F7"/>
		</linearGradient>
		<linearGradient id="paint_linear_20_12973_0" x1="143.893875" y1="70.738792" x2="139.952454" y2="74.441757" gradientUnits="userSpaceOnUse">
			<stop stop-color="#632E40"/>
			<stop offset="1.000000" stop-color="#48202D"/>
		</linearGradient>
		<linearGradient id="paint_linear_20_12990_0" x1="230.609497" y1="175.893112" x2="238.001938" y2="210.367111" gradientUnits="userSpaceOnUse">
			<stop stop-color="#31ADCC"/>
			<stop offset="1.000000" stop-color="#198AA6"/>
		</linearGradient>
		<linearGradient id="paint_linear_20_12991_0" x1="239.459274" y1="194.012131" x2="235.148895" y2="211.348129" gradientUnits="userSpaceOnUse">
			<stop stop-color="#31ADCC"/>
			<stop offset="1.000000" stop-color="#198AA6"/>
		</linearGradient>
		<linearGradient id="paint_linear_20_12992_0" x1="226.649902" y1="168.667145" x2="237.916290" y2="211.460449" gradientUnits="userSpaceOnUse">
			<stop stop-color="#31ADCC"/>
			<stop offset="1.000000" stop-color="#198AA6"/>
		</linearGradient>
		<linearGradient id="paint_linear_20_12994_0" x1="251.166412" y1="156.780014" x2="243.045044" y2="205.966888" gradientUnits="userSpaceOnUse">
			<stop stop-color="#31ADCC"/>
			<stop offset="1.000000" stop-color="#198AA6"/>
		</linearGradient>
		<linearGradient id="paint_linear_20_12995_0" x1="247.603653" y1="161.895798" x2="242.604950" y2="207.541702" gradientUnits="userSpaceOnUse">
			<stop stop-color="#31ADCC"/>
			<stop offset="1.000000" stop-color="#198AA6"/>
		</linearGradient>
		<linearGradient id="paint_linear_20_12997_0" x1="241.610016" y1="215.870010" x2="243.072327" y2="233.543442" gradientUnits="userSpaceOnUse">
			<stop stop-color="#105B91"/>
			<stop offset="1.000000" stop-color="#0A3C5F"/>
		</linearGradient>
		<linearGradient id="paint_linear_20_12999_0" x1="241.254898" y1="211.739319" x2="241.592346" y2="215.775223" gradientUnits="userSpaceOnUse">
			<stop stop-color="#105B91"/>
			<stop offset="1.000000" stop-color="#0A3C5F"/>
		</linearGradient>
		<linearGradient id="paint_linear_20_13001_0" x1="184.068390" y1="90.864311" x2="160.388336" y2="113.050598" gradientUnits="userSpaceOnUse">
			<stop stop-color="#298BE6"/>
			<stop offset="1.000000" stop-color="#1761A6"/>
		</linearGradient>
		<linearGradient id="paint_linear_20_13002_0" x1="187.069153" y1="95.197151" x2="161.643341" y2="119.021202" gradientUnits="userSpaceOnUse">
			<stop stop-color="#298BE6"/>
			<stop offset="1.000000" stop-color="#1761A6"/>
		</linearGradient>
		<linearGradient id="paint_linear_20_13005_0" x1="144.289902" y1="164.743668" x2="182.282394" y2="204.333466" gradientUnits="userSpaceOnUse">
			<stop stop-color="#31ADCC"/>
			<stop offset="1.000000" stop-color="#198AA6"/>
		</linearGradient>
		<linearGradient id="paint_linear_20_13006_0" x1="210.016357" y1="230.434296" x2="201.440613" y2="225.228561" gradientUnits="userSpaceOnUse">
			<stop stop-color="#BED2E8"/>
			<stop offset="1.000000" stop-color="#CEE0F3"/>
		</linearGradient>
		<linearGradient id="paint_linear_20_13009_0" x1="140.721664" y1="187.415543" x2="171.267700" y2="219.243896" gradientUnits="userSpaceOnUse">
			<stop stop-color="#31ADCC"/>
			<stop offset="1.000000" stop-color="#198AA6"/>
		</linearGradient>
		<linearGradient id="paint_linear_20_13010_0" x1="189.885986" y1="229.646393" x2="170.858261" y2="226.096405" gradientUnits="userSpaceOnUse">
			<stop stop-color="#BED2E8"/>
			<stop offset="1.000000" stop-color="#CEE0F3"/>
		</linearGradient>
		<linearGradient id="paint_linear_20_13013_0" x1="194.825790" y1="146.350327" x2="169.102997" y2="207.968918" gradientUnits="userSpaceOnUse">
			<stop stop-color="#298BE6"/>
			<stop offset="1.000000" stop-color="#1761A6"/>
		</linearGradient>
		<linearGradient id="paint_linear_20_13014_0" x1="200.459076" y1="148.168137" x2="173.903839" y2="211.784378" gradientUnits="userSpaceOnUse">
			<stop stop-color="#298BE6"/>
			<stop offset="1.000000" stop-color="#1761A6"/>
		</linearGradient>
		<linearGradient id="paint_linear_20_13015_0" x1="206.363113" y1="151.362839" x2="181.666245" y2="210.533783" gradientUnits="userSpaceOnUse">
			<stop stop-color="#298BE6"/>
			<stop offset="1.000000" stop-color="#1761A6"/>
		</linearGradient>
		<linearGradient id="paint_linear_20_13016_0" x1="213.494080" y1="153.342804" x2="187.226990" y2="216.270325" gradientUnits="userSpaceOnUse">
			<stop stop-color="#298BE6"/>
			<stop offset="1.000000" stop-color="#1761A6"/>
		</linearGradient>
		<linearGradient id="paint_linear_20_13017_0" x1="195.271744" y1="107.926178" x2="169.436493" y2="132.128174" gradientUnits="userSpaceOnUse">
			<stop stop-color="#298BE6"/>
			<stop offset="1.000000" stop-color="#1761A6"/>
		</linearGradient>
		<linearGradient id="paint_linear_20_13018_0" x1="191.415802" y1="99.768448" x2="162.714310" y2="126.656677" gradientUnits="userSpaceOnUse">
			<stop stop-color="#298BE6"/>
			<stop offset="1.000000" stop-color="#1761A6"/>
		</linearGradient>
		<linearGradient id="paint_linear_20_13019_0" x1="205.539001" y1="114.859482" x2="182.853271" y2="136.114395" gradientUnits="userSpaceOnUse">
			<stop stop-color="#298BE6"/>
			<stop offset="1.000000" stop-color="#1761A6"/>
		</linearGradient>
		<linearGradient id="paint_linear_20_13022_0" x1="191.721680" y1="72.461884" x2="189.458511" y2="74.590073" gradientUnits="userSpaceOnUse">
			<stop stop-color="#E8A476"/>
			<stop offset="1.000000" stop-color="#F1B287"/>
		</linearGradient>
		<linearGradient id="paint_linear_20_13023_0" x1="191.050995" y1="69.208977" x2="191.275955" y2="72.192047" gradientUnits="userSpaceOnUse">
			<stop stop-color="#CF8D61"/>
			<stop offset="1.000000" stop-color="#E8A476"/>
		</linearGradient>
		<linearGradient id="paint_linear_20_13024_0" x1="186.079636" y1="52.475922" x2="195.609268" y2="59.737869" gradientUnits="userSpaceOnUse">
			<stop stop-color="#632E40"/>
			<stop offset="1.000000" stop-color="#48202D"/>
		</linearGradient>
		<linearGradient id="paint_linear_20_13027_0" x1="189.134781" y1="63.256832" x2="187.033585" y2="66.289391" gradientUnits="userSpaceOnUse">
			<stop stop-color="#E8A476"/>
			<stop offset="1.000000" stop-color="#F1B287"/>
		</linearGradient>
		<linearGradient id="paint_linear_20_13029_0" x1="197.989029" y1="119.745789" x2="187.613525" y2="123.250786" gradientUnits="userSpaceOnUse">
			<stop stop-color="#F7975F"/>
			<stop offset="1.000000" stop-color="#FAB07E"/>
		</linearGradient>
		<linearGradient id="paint_linear_20_13033_0" x1="149.629959" y1="116.483818" x2="182.668655" y2="124.209206" gradientUnits="userSpaceOnUse">
			<stop stop-color="#D2EEFC"/>
			<stop offset="1.000000" stop-color="#C3E6F7"/>
		</linearGradient>
		<linearGradient id="paint_linear_20_13034_0" x1="169.134369" y1="122.512718" x2="169.570801" y2="126.283165" gradientUnits="userSpaceOnUse">
			<stop stop-color="#CF8D61"/>
			<stop offset="1.000000" stop-color="#E8A476"/>
		</linearGradient>
		<linearGradient id="paint_linear_20_13035_0" x1="197.985138" y1="108.906761" x2="176.707733" y2="128.838867" gradientUnits="userSpaceOnUse">
			<stop stop-color="#298BE6"/>
			<stop offset="1.000000" stop-color="#1761A6"/>
		</linearGradient>
		<linearGradient id="paint_linear_20_13036_0" x1="198.039032" y1="108.416397" x2="176.059723" y2="129.009903" gradientUnits="userSpaceOnUse">
			<stop stop-color="#298BE6"/>
			<stop offset="1.000000" stop-color="#1761A6"/>
		</linearGradient>
	</defs>
	<rect id="Frame 128893" width="284.000000" height="282.000000" fill="url(#paint_radial_20_12695_0)" fill-opacity="1.000000"/>
	<g clip-path="url(#clip20_12695)">
		<g opacity="0.650000">
			<path id="Vector" d="M156.6 242.75C215.36 242.75 263 239.36 263 235.18C263 231 215.36 227.61 156.6 227.61C97.84 227.61 50.21 231 50.21 235.18C50.21 239.36 97.84 242.75 156.6 242.75Z" fill="#BCE3F8" fill-opacity="1.000000" fill-rule="evenodd"/>
		</g>
		<g opacity="0.650000">
			<path id="Vector" d="M156.6 238.84C211.84 238.84 256.61 237.2 256.61 235.18C256.61 233.16 211.84 231.52 156.6 231.52C101.37 231.52 56.6 233.16 56.6 235.18C56.6 237.2 101.37 238.84 156.6 238.84Z" fill="#BCE3F8" fill-opacity="1.000000" fill-rule="evenodd"/>
		</g>
		<path id="Vector" d="M125.54 223C125.9 224.78 126.99 226.14 127.16 227.45C127.46 229.7 126.16 231.96 123.49 231.99L106.06 232.14C106.98 226.18 116.3 229.48 119.43 222.88L123.49 223.11L125.54 223Z" fill="url(#paint_linear_20_12940_0)" fill-opacity="1.000000" fill-rule="evenodd"/>
		<path id="Vector" d="M115.58 133.57C116.97 162.89 115.98 189.2 119.06 223.68C119.11 224.23 120.48 225.15 121.96 225.29C123.7 225.45 125.58 224.71 125.61 223.48C126.01 210.47 127.55 194.59 128.24 184.3C128.93 173.84 130.91 163.01 132.52 152.2C133.37 146.53 133.01 141.68 134.21 134.67L119.85 134.15L115.58 133.56L115.58 133.57Z" fill="url(#paint_linear_20_12941_0)" fill-opacity="1.000000" fill-rule="evenodd"/>
		<path id="Vector" d="M115.26 135.81L116.9 184.99C118.98 186.03 120.74 186.37 123.7 186.8C124.55 203.24 125.55 225.44 125.61 223.48C126 210.47 127.55 194.59 128.23 184.3C129.15 170.48 131.8 148.69 134.2 134.67L119.84 134.15L115.26 135.8L115.26 135.81Z" fill="url(#paint_linear_20_12942_0)" fill-opacity="1.000000" fill-rule="evenodd"/>
		<path id="Vector" d="M159.87 232.28C158.07 234.11 157.45 234.86 155.16 234.92C153.29 234.97 152.66 234.38 151.6 233.33C150.43 232.17 150.06 231.44 150.08 230.4C150.13 228.43 150.98 226.65 151.11 224.18L154.87 224.46L156.51 223.59C157.22 224.74 158.73 226.88 159.79 228.75C160.31 229.67 160.12 231.32 159.87 232.29L159.87 232.28Z" fill="url(#paint_linear_20_12944_0)" fill-opacity="1.000000" fill-rule="evenodd"/>
		<path id="Vector" d="M139.69 136.68C141.11 139.69 143.73 142.15 145.3 149.58C145.63 151.13 145.83 152.44 145.99 153.66C146.89 160.9 147.27 167.79 148.45 175.09C151.04 191.18 153.73 207.88 156.6 223.66C157.05 226.15 151.82 225.98 151.31 224.76C146 211.96 142.17 198.86 137.48 185.88C130.99 167.93 122.79 150.7 117.17 133.64L139.69 136.68Z" fill="url(#paint_linear_20_12945_0)" fill-opacity="1.000000" fill-rule="evenodd"/>
		<path id="Vector" d="M139.69 136.68C141.11 139.69 143.73 142.15 145.3 149.58C145.63 151.13 145.83 152.44 145.99 153.66C146.89 160.9 147.27 167.79 148.45 175.09C151.04 191.18 153.73 207.88 156.6 223.66C157.05 226.15 145.48 187.78 144.97 186.57C140.78 186.89 139.49 186.98 137.62 186.26C131.41 168.44 123.05 151.5 117.17 133.64L139.69 136.68Z" fill="url(#paint_linear_20_12946_0)" fill-opacity="1.000000" fill-rule="evenodd"/>
		<path id="Vector" d="M120.35 174.46C118.36 157.72 118.49 140.82 118.62 123.36C118.77 140.09 123.05 158.43 126.05 174.18C124.87 174.54 121.16 174.85 120.35 174.46Z" fill="url(#paint_linear_20_12947_0)" fill-opacity="1.000000" fill-rule="evenodd"/>
		<path id="Vector" d="M96.85 108.99C96.12 109.16 95.48 109.24 93.3 109.23C93.37 111.16 95.01 110.92 96.65 110.91C99.93 111.48 100.56 110.55 103.26 108.73C98.11 107.56 101.47 107.9 96.85 108.99L96.85 108.99Z" fill="url(#paint_linear_20_12949_0)" fill-opacity="1.000000" fill-rule="evenodd"/>
		<path id="Vector" d="M99.83 108.33C97.09 110.08 94.74 111.02 91.76 112.32C95.6 115.25 96.97 116.91 99.13 116.43C100.1 116.22 101.44 114.96 103.39 114.27C104.78 113.77 106.66 113.86 108.06 113.56L107.7 109.92C105.19 108.55 102.71 108.75 99.83 108.33Z" fill="url(#paint_linear_20_12950_0)" fill-opacity="1.000000" fill-rule="evenodd"/>
		<path id="Vector" d="M99.63 109.41L80.14 102.65L91.05 112.63L109.14 118.44L99.39 109.27L99.63 109.41Z" fill="url(#paint_linear_20_12951_0)" fill-opacity="1.000000" fill-rule="evenodd"/>
		<path id="Vector" d="M92 113.32C93.31 114.48 95.17 115.31 96.87 116.14C98.22 116.81 98.61 116.88 100.48 115.83C98.31 115.76 98.68 115.17 98.27 113.44C98.06 112.54 97.61 111.86 96.27 111.85C95.61 111.85 94.93 112.08 94.33 111.61C93.15 110.67 92.32 110.19 91.87 110.38C91.51 111.01 91.73 113.08 92 113.32L92 113.32Z" fill="url(#paint_linear_20_12952_0)" fill-opacity="1.000000" fill-rule="evenodd"/>
		<path id="Vector" d="M104.12 108.65C105.34 109.56 105.8 111.85 105.88 113.92C109.6 114.3 113.67 113.31 117.14 109.6L120.1 104.29L117.38 92.19C114.45 100.22 110.89 108.55 104.12 108.65Z" fill="#BCE5FA" fill-opacity="1.000000" fill-rule="evenodd"/>
		<path id="Vector" d="M119.85 59.26C118.81 53.64 126.37 53.29 129.92 54.63C136.47 52.16 137.66 63.43 137.22 69.16C135.75 87.98 161.38 91.8 142.88 106.13C141.24 107.4 139.1 106.6 135.11 106.23C120.7 102.69 131.42 96.43 118.73 87.93C115.08 80.24 122.11 80.44 122.76 72.75C123.03 69.57 120.79 66.16 119.85 59.26L119.85 59.26Z" fill="url(#paint_linear_20_12954_0)" fill-opacity="1.000000" fill-rule="evenodd"/>
		<path id="Vector" d="M120.07 83.11C116.33 87.73 114.03 92.94 114.21 98.25C114.45 105.45 115.84 113.24 115.46 120.53C114.49 139.42 113.1 160.82 114.04 182.04C116.82 182.43 118.64 182.44 121.58 182.52C118.92 163 118.47 143.74 118.63 123.36C118.8 143.27 122.11 165.34 125.91 182.79C133.42 182.71 141.54 181.62 150.47 179.33C149.7 172.01 148.91 161.94 147.63 151.91C145.44 134.65 142.62 128.48 139.02 119.58C136.59 113.58 136.68 112.3 141.1 103.86C143.24 99.78 143.91 94.54 143.13 89.56C142.84 87.66 142.93 85.74 142.02 84C139.89 79.92 135.33 76.79 129.39 77C126.3 77.1 123.84 78.47 120.07 83.11L120.07 83.11Z" fill="url(#paint_linear_20_12955_0)" fill-opacity="1.000000" fill-rule="evenodd"/>
		<g opacity="0.550000">
			<path id="Vector" d="M139.72 106.82C140.08 105.91 140.53 104.93 141.09 103.85C143.23 99.77 143.9 94.54 143.12 89.55C142.83 87.66 142.92 85.75 142.01 84.01C140.98 88.96 139.08 93.33 137.3 97.57C135.26 102.43 133.39 107.1 133.2 112.25C133.01 117.29 136.76 125.25 138.08 135.03C140.29 151.44 141.24 171.43 142.84 181.03C145.32 180.56 147.86 180 150.46 179.33C149.69 172.01 148.9 161.94 147.62 151.91C145.43 134.65 142.62 128.48 139.01 119.58C136.9 114.36 136.69 112.71 139.58 106.82L139.72 106.82Z" fill="url(#paint_linear_20_12956_0)" fill-opacity="1.000000" fill-rule="evenodd"/>
		</g>
		<path id="Vector" d="M125.34 72.84C126.04 74.92 126.4 78.69 125.86 81.39C128.76 79.77 129.61 79.31 132.01 76.99L130.45 69.01L125.34 72.84Z" fill="url(#paint_linear_20_12959_0)" fill-opacity="1.000000" fill-rule="evenodd"/>
		<path id="Vector" d="M125.34 72.84C125.53 73.4 125.92 75.11 125.97 75.94C126.95 76.88 130.45 73.55 131.08 72.24L130.45 69.01L125.34 72.84L125.34 72.84Z" fill="url(#paint_linear_20_12960_0)" fill-opacity="1.000000" fill-rule="evenodd"/>
		<path id="Vector" d="M120.37 58.14C118.16 61.02 118.57 70.92 119.81 74.16C120.85 76.87 127.78 72.48 128.76 70.89C130.77 67.62 134.49 63.81 132.95 58.27C131.53 53.17 124.81 52.39 120.38 58.14L120.37 58.14Z" fill="url(#paint_linear_20_12962_0)" fill-opacity="1.000000" fill-rule="evenodd"/>
		<path id="Vector" d="M120.37 58.14C120.32 58.21 119.93 58.81 119.62 59.67C119.48 60.04 119.37 60.53 119.28 60.93C120.38 64.18 125.21 64.78 126.04 67.5C126.13 67.82 126.71 68.34 127.03 67.97C127.82 67.01 128.69 65.95 129.09 66.36C130.17 67.51 127.9 69.78 128.16 71.58C128.43 71.32 128.64 71.08 128.76 70.89C130.77 67.62 134.49 63.82 132.94 58.28C131.52 53.17 124.8 52.39 120.37 58.15L120.37 58.14Z" fill="#DA9569" fill-opacity="1.000000" fill-rule="evenodd"/>
		<path id="Vector" d="M132.54 78.24C126.63 89.14 121.23 86.05 119.44 101.01C119.19 91.95 121.64 85.24 123.4 82.44C124.9 80.08 126.42 81.46 132.53 78.24L132.54 78.24Z" fill="url(#paint_linear_20_12964_0)" fill-opacity="1.000000" fill-rule="evenodd"/>
		<path id="Vector" d="M126.08 77.1C123.43 80.08 122.72 83.22 122.47 84.59C123.14 84.26 124.12 84.05 124.53 83.76C125.12 81.78 125.23 80.52 126.13 79.07C126.2 78.28 126.13 77.67 126.08 77.1Z" fill="#2499B7" fill-opacity="1.000000" fill-rule="evenodd"/>
		<path id="Vector" d="M131.96 73.72C130.49 76.61 128.37 78.27 126.13 79.04C124.61 81.22 124.54 83.68 124.24 85.28C125.96 85.42 132.29 80.11 132.68 77.15C132.61 76.16 132.42 74.42 131.96 73.72L131.96 73.72Z" fill="#30AAC9" fill-opacity="1.000000" fill-rule="evenodd"/>
		<path id="Vector" d="M124.03 109.52C122.04 109.11 120.46 108.76 118.53 107.91C116.78 107.13 115.73 107.17 113.68 108.17C113.1 108.46 111.27 109.37 110.56 109.6C108.52 110.23 109.37 111.28 110.85 111.26C111.81 111.24 113.16 110.98 114.48 110.72C112.98 111.89 112.4 112.06 111.22 111.97C108.17 111.75 104.65 109.41 104.04 111.37C105.84 112.81 107.51 114.18 109.42 115.46C113.9 118.47 114.44 118.55 118.48 114.91C120.27 113.3 120.87 114.12 123.35 114.67C124.24 112.9 124.77 111.69 124.02 109.52L124.03 109.52Z" fill="url(#paint_linear_20_12968_0)" fill-opacity="1.000000" fill-rule="evenodd"/>
		<path id="Vector" d="M141.44 82.84C145.5 88.53 156.86 102.99 154.72 112.73C151.55 127.2 129.45 118.38 121 114.31C119.88 113.83 120.04 109.4 121.83 108.46C143.67 111.79 149.02 113.36 129.97 91.96C127.48 88.85 127.99 84.31 131.1 81.82C134.21 79.34 138.94 79.72 141.43 82.84L141.44 82.84Z" fill="url(#paint_linear_20_12970_0)" fill-opacity="1.000000" fill-rule="evenodd"/>
		<g opacity="0.550000">
			<path id="Vector" d="M141.44 82.84C145.5 88.53 156.86 102.99 154.72 112.73C151.55 127.2 129.46 118.38 121 114.31C120.83 114.23 120.68 114.05 120.56 113.78C126.91 115.04 137.88 118.05 144.85 116.9C149.67 116.11 152.17 113.11 151.05 107.81C150.28 104.21 148.75 100.45 146.74 96.88C144.83 93.48 143.17 90.81 141.33 88.39C137.01 82.66 134.7 82.4 131.75 80.22C130.72 79.47 130.22 78.45 130.01 77.04L129.87 76.99C134.69 76.97 138.56 79.17 140.89 82.23C141.08 82.42 141.27 82.63 141.44 82.84L141.44 82.84Z" fill="url(#paint_linear_20_12971_0)" fill-opacity="1.000000" fill-rule="evenodd"/>
		</g>
		<path id="Vector" d="M119.63 56.7C118.17 62.52 125.59 63.23 126.64 66.95C126.81 67.56 128.37 65.4 129.04 65.52C129.88 65.68 130.54 66.86 129.49 69.01C128.96 70.09 128.42 70.63 128.34 71.94C128.27 73.31 128.53 74.48 128.95 75.46C131.09 80.5 133.75 78.2 137.6 80.03C140.77 81.53 141.15 82.45 142.99 84.98C145.8 88.85 149.99 94.71 152.6 100.64C158.27 91.77 153.73 89.37 147.95 83.21C141.16 75.96 140.47 73.13 141.85 65.33C143.57 55.58 134.81 48.67 128.18 53.36C125.73 51.33 121.18 51.98 119.63 56.7L119.63 56.7Z" fill="url(#paint_linear_20_12973_0)" fill-opacity="1.000000" fill-rule="evenodd"/>
		<path id="Vector" d="M119.63 56.7C118.17 62.52 125.59 63.23 126.64 66.95C126.81 67.56 128.37 65.4 129.04 65.52C129.88 65.68 130.54 66.85 129.49 69.01C128.96 70.09 128.42 70.63 128.34 71.94C128.27 73.31 128.53 74.48 128.95 75.46C131.09 80.5 133.75 78.2 137.6 80.03C140.77 81.53 141.15 82.45 142.99 84.98C145.8 88.85 149.99 94.71 152.6 100.64C152.78 100.36 152.95 100.08 153.11 99.81C149.66 90.79 144.86 80.88 138.09 77.77C134.95 76.32 131.86 74.76 131.41 72.03C131.02 69.68 132.79 68.79 131.88 66.13C131.36 64.62 129.92 63.84 127.12 64.72C123.51 60.87 121.93 61.07 119.68 56.57L119.63 56.71L119.63 56.7Z" fill="#48202D" fill-opacity="1.000000" fill-rule="evenodd"/>
		<path id="Vector" d="M16.02 76.87L16.16 122C16.17 125.29 18.78 127.97 21.96 127.94L68.71 127.55C71.89 127.52 74.48 124.8 74.47 121.51L74.27 59.09C74.26 55.8 71.66 53.13 68.48 53.15L37.94 53.41L16.02 76.86L16.02 76.87Z" fill="#D1EDFB" fill-opacity="1.000000" fill-rule="evenodd"/>
		<g opacity="0.700000">
			<path id="Vector" d="M66.65 76.67L43.92 76.86C42.95 76.87 42.19 76.08 42.18 75.11L42.18 72.08C42.18 71.11 42.93 70.29 43.89 70.28L66.63 70.09C67.57 70.08 68.33 70.89 68.33 71.86L68.34 74.89C68.34 75.86 67.59 76.66 66.65 76.67L66.65 76.67Z" fill="#FFFFFF" fill-opacity="1.000000" fill-rule="evenodd"/>
		</g>
		<g opacity="0.700000">
			<path id="Vector" d="M23.69 87.91C23.03 87.91 22.5 87.36 22.5 86.68L22.49 84.55C22.49 83.86 23.02 83.3 23.67 83.3L67.14 82.93C67.8 82.93 68.34 83.48 68.34 84.16L68.34 86.29C68.34 86.98 67.81 87.53 67.16 87.54L23.69 87.9L23.69 87.91Z" fill="#FFFFFF" fill-opacity="1.000000" fill-rule="evenodd"/>
		</g>
		<g opacity="0.700000">
			<path id="Vector" d="M23.69 98.53C23.03 98.54 22.5 97.98 22.5 97.3L22.49 95.16C22.49 94.48 23.02 93.92 23.67 93.92L67.14 93.55C67.8 93.55 68.34 94.09 68.34 94.78L68.34 96.91C68.34 97.59 67.81 98.15 67.16 98.16L23.69 98.52L23.69 98.53Z" fill="#FFFFFF" fill-opacity="1.000000" fill-rule="evenodd"/>
		</g>
		<g opacity="0.700000">
			<path id="Vector" d="M23.69 109.14C23.03 109.15 22.5 108.6 22.5 107.91L22.49 105.78C22.49 105.1 23.02 104.54 23.67 104.54L67.14 104.17C67.8 104.17 68.34 104.71 68.34 105.4L68.34 107.53C68.34 108.21 67.81 108.77 67.16 108.78L23.69 109.14Z" fill="#FFFFFF" fill-opacity="1.000000" fill-rule="evenodd"/>
		</g>
		<g opacity="0.700000">
			<path id="Vector" d="M23.69 120.16C23.03 120.16 22.5 119.61 22.5 118.93L22.49 116.8C22.49 116.11 23.02 115.56 23.67 115.55L67.14 115.18C67.8 115.18 68.34 115.73 68.34 116.41L68.34 118.54C68.34 119.23 67.81 119.79 67.16 119.79L23.69 120.15L23.69 120.16Z" fill="#FFFFFF" fill-opacity="1.000000" fill-rule="evenodd"/>
		</g>
		<g opacity="0.500000">
			<path id="Vector" d="M16.04 85.94C19.37 84.86 27.58 83.39 34.01 81.36C39.76 79.54 39.76 77.01 39.35 70.99L38.16 53.4L37.9 53.4L16.02 76.85L16.04 85.94Z" fill="#B1C5DA" fill-opacity="1.000000" fill-rule="evenodd"/>
		</g>
		<path id="Vector" d="M16.02 76.87L32.21 76.73C35.41 76.7 38 73.99 37.99 70.69L37.93 53.41L16.02 76.87Z" fill="#D1EDFB" fill-opacity="1.000000" fill-rule="evenodd"/>
		<path id="Vector" d="M227.49 157.88C225.55 160.15 224 162.36 222.79 164.51C223.19 165.22 223.54 165.95 223.94 166.67C223.17 166.34 222.61 166.09 222.04 165.9C218.64 172.69 218.69 178.84 221.03 184.32C222.88 185.11 223.36 185.22 225.66 185.47C224.55 185.94 223.43 186.41 222.32 186.88C225.26 191.87 230.48 194.44 228.89 202.39C228.82 202.7 228.76 203.01 228.71 203.33C230.07 204.21 231.44 205.09 232.81 205.97C230.67 205.83 229.84 205.82 228.48 206.08C228.59 209.78 230.86 213.67 240.81 217.26C241.78 217.18 244.17 216.01 244.67 215.33C244.23 211.88 245.26 205.85 246.15 201.11C246.87 197.25 246.63 194.54 245.77 192.47C244.54 193.08 243.26 193.52 241.99 194.08C243.01 192.25 243.51 191.37 243.91 189.58C240.8 186.16 235.6 184.39 232.02 178.7C231.8 178.36 231.58 177.99 231.36 177.62C230.66 177.92 229.95 178.18 229.24 178.49C229.82 177.46 230.18 176.82 230.46 176C228.13 171.59 225.98 165.35 227.48 157.89L227.49 157.88Z" fill="url(#paint_linear_20_12990_0)" fill-opacity="1.000000" fill-rule="evenodd"/>
		<g opacity="0.500000">
			<path id="Vector" d="M228.49 195.79C229.18 197.57 229.43 199.66 228.89 202.39C228.83 202.7 228.77 203.01 228.71 203.33C230.08 204.21 231.45 205.09 232.81 205.97C230.67 205.83 229.85 205.82 228.48 206.08C228.6 209.78 230.87 213.67 240.81 217.26C241.78 217.18 244.17 216.01 244.67 215.33C244.23 211.88 245.27 205.85 246.15 201.11C246.87 197.25 246.63 194.54 245.78 192.47C244.54 193.08 243.26 193.52 241.99 194.08C243.02 192.25 243.52 191.37 243.92 189.58C241.95 187.42 239.15 185.92 236.46 183.68C235.07 188.3 231.05 191.16 228.48 195.8L228.49 195.79Z" fill="url(#paint_linear_20_12991_0)" fill-opacity="1.000000" fill-rule="evenodd"/>
		</g>
		<g opacity="0.500000">
			<path id="Vector" d="M226.3 183.12C224.72 182.47 222.44 180.77 221.07 179.15C222.69 180.18 224.04 181.24 225.57 181.79C225.3 181.23 225.04 180.65 224.82 180.04C222.82 174.49 224.08 169.58 225.65 164.28C224.61 168.49 223.71 172.5 224.54 176.68C224.94 175.38 225.75 174.39 226.8 172.84C225.99 174.73 225.1 176.38 224.97 178.35C225.12 178.83 225.29 179.3 225.49 179.78C226.5 182.21 228.01 184.13 229.66 185.9C229.49 184.2 229.99 182.78 230.72 180.82C230.42 182.65 230.1 184.88 230.52 186.79C232.81 189.13 235.24 191.28 236.86 194.1C237.7 190.49 237.49 191.14 238.31 187.57C238.59 191.48 238.47 192.97 237.66 195.71C238.15 196.88 238.5 198.17 238.65 199.62C239.05 203.26 239.02 205.52 239.25 207.48C241.29 203.36 240.35 205.3 243.09 199.43C242.83 202.85 242.94 203.23 239.72 209.88C240.24 211.64 241.21 213.52 243.17 216.38C242.54 216.72 241.83 217.01 241.29 217.16C237.71 211.82 237.7 209.74 237.64 205.73C236.09 203.01 234.11 199.93 231.99 197.87C233.93 198.6 235.45 199.7 237.56 202.94C237.52 201.98 237.44 200.92 237.31 199.71C236.97 196.47 235.44 194.02 233.52 191.73C229.79 190.19 229.01 190.21 227.33 189.78C229.47 189.56 230.78 189.71 232.08 190.1C230.09 187.93 227.92 185.78 226.3 183.11L226.3 183.12Z" fill="url(#paint_linear_20_12992_0)" fill-opacity="1.000000" fill-rule="evenodd"/>
		</g>
		<path id="Vector" d="M256.15 132.79C252.48 134.75 249.33 136.83 246.65 139C246.81 140.13 246.89 141.25 247.05 142.39C246.22 141.56 245.61 140.95 244.98 140.42C237.09 147.5 234 155.52 234.25 163.83C236.25 165.81 236.82 166.2 239.69 167.7C238 167.74 236.31 167.78 234.62 167.82C235.88 175.81 241.36 181.82 235.23 191.33C234.99 191.7 234.75 192.08 234.52 192.46C235.84 194.3 237.16 196.15 238.49 197.99C235.78 196.71 234.72 196.28 232.81 195.92C231.07 200.78 232.03 207 243.11 216.75C244.41 217.14 248.12 216.85 249.12 216.21C250.32 211.51 254.74 204.2 258.32 198.49C261.23 193.85 262.3 190.21 262.25 187.07C260.33 187.24 258.44 187.16 256.51 187.23C258.77 185.38 259.87 184.49 261.31 182.37C259 176.32 253.16 171.38 251.41 162.15C251.31 161.59 251.21 161.01 251.11 160.4C250.05 160.43 248.99 160.42 247.91 160.46C249.19 159.41 249.99 158.76 250.76 157.85C249.99 150.92 250.39 141.71 256.15 132.79L256.15 132.79Z" fill="url(#paint_linear_20_12994_0)" fill-opacity="1.000000" fill-rule="evenodd"/>
		<g opacity="0.500000">
			<path id="Vector" d="M241.71 164.98C239.99 163.32 237.89 159.96 236.94 157.14C238.52 159.31 239.74 161.39 241.44 162.89C241.37 162.02 241.34 161.13 241.36 160.22C241.59 152 245.75 146.26 250.49 140.16C246.99 145.11 243.77 149.86 242.72 155.71C243.9 154.22 245.44 153.36 247.62 151.88C245.59 153.93 243.59 155.61 242.42 158.12C242.37 158.8 242.35 159.51 242.36 160.23C242.43 163.89 243.41 167.17 244.66 170.31C245.3 168.02 246.68 166.43 248.63 164.25C247.3 166.48 245.75 169.22 245.31 171.92C247.1 176.13 249.15 180.17 249.81 184.65C252.75 180.39 252.15 181.14 255.03 176.92C253.39 182.13 252.47 184.01 250.02 187.16C250.06 188.93 249.85 190.78 249.31 192.75C247.96 197.67 246.77 200.6 246.06 203.26C250.83 198.94 248.62 200.99 255.17 194.77C253.09 199.08 253.04 199.62 245.45 206.62C245.23 209.17 245.53 212.12 246.61 216.84C245.61 216.95 244.55 216.97 243.77 216.88C241.86 208.11 242.91 205.42 244.88 200.18C244.25 195.84 243.25 190.83 241.56 187.07C243.69 189.01 245.12 191.22 246.2 196.51C246.63 195.25 247.08 193.82 247.53 192.19C248.74 187.81 248 183.83 246.68 179.88C242.62 175.97 241.61 175.6 239.64 174.17C242.54 174.98 244.17 175.85 245.64 177.02C244.17 173.18 242.44 169.29 241.71 164.99L241.71 164.98Z" fill="url(#paint_linear_20_12995_0)" fill-opacity="1.000000" fill-rule="evenodd"/>
		</g>
		<path id="Vector" d="M227.83 213.29L254.96 213.29L249.71 234.92L233.08 234.92L227.83 213.29Z" fill="url(#paint_linear_20_12997_0)" fill-opacity="1.000000" fill-rule="evenodd"/>
		<g opacity="0.300000">
			<path id="Vector" d="M227.83 213.29L254.96 213.29L254.13 216.54L231.45 228.23L227.83 213.29Z" fill="#08365B" fill-opacity="1.000000" fill-rule="evenodd"/>
		</g>
		<path id="Vector" d="M227.47 211.15L255.32 211.15C255.52 211.15 255.67 211.3 255.67 211.49L255.67 215.46C255.67 215.65 255.52 215.81 255.32 215.81L227.47 215.81C227.28 215.81 227.12 215.65 227.12 215.46L227.12 211.49C227.12 211.3 227.28 211.15 227.47 211.15Z" fill="url(#paint_linear_20_12999_0)" fill-opacity="1.000000" fill-rule="evenodd"/>
		<path id="Vector" d="M166.21 124.07C166.3 125.38 174.24 126.6 174.02 123.64C173.82 120.89 170.29 117.51 167.72 110.86C164.15 101.65 178.94 92.11 184.98 88.23C188.64 86.22 189.97 81.62 187.95 77.96C185.5 73.51 182.38 73.71 179.1 74.94C170.09 78.31 161.26 87.22 157.78 95.67C153.85 105.2 156.37 114.63 166.22 124.07L166.21 124.07Z" fill="url(#paint_linear_20_13001_0)" fill-opacity="1.000000" fill-rule="evenodd"/>
		<g opacity="0.350000">
			<path id="Vector" d="M169.04 125.33C171.33 125.69 174.15 125.42 174.02 123.64C173.82 120.89 170.29 117.51 167.72 110.86C165.34 104.71 171.13 98.43 177.04 93.77C176.88 91.91 176.7 90.15 176.49 88.51C160.07 101.96 159.83 108.61 171.79 122.58L169.04 125.33Z" fill="url(#paint_linear_20_13002_0)" fill-opacity="1.000000" fill-rule="evenodd"/>
		</g>
		<path id="Vector" d="M211.01 232.62C208.37 234.42 207.45 235.2 204.47 234.85C202.04 234.56 201.33 233.75 200.14 232.33C198.82 230.74 198.48 229.83 198.68 228.62C199.07 226.32 200.48 224.39 201.07 221.52L205.88 222.54L208.14 221.82C208.86 223.3 210.45 226.08 211.51 228.47C212.02 229.65 211.5 231.54 211.01 232.62Z" fill="url(#paint_linear_20_13005_0)" fill-opacity="1.000000" fill-rule="evenodd"/>
		<path id="Vector" d="M211.13 231.86C208.52 233.5 207.61 234.2 204.63 233.84C202.2 233.55 201.48 232.79 200.28 231.46C198.94 229.98 198.59 229.12 198.78 228C199.14 225.88 200.53 224.1 201.08 221.45L205.89 222.46L208.14 221.81C208.88 223.19 210.51 225.79 211.58 228.01C212.11 229.11 211.61 230.86 211.14 231.86L211.13 231.86Z" fill="url(#paint_linear_20_13006_0)" fill-opacity="1.000000" fill-rule="evenodd"/>
		<g opacity="0.500000">
			<path id="Vector" d="M200.11 224.35C200.49 223.47 200.85 222.54 201.08 221.45L205.89 222.46L208.14 221.82C208.43 222.36 208.86 223.1 209.34 223.92C207.84 226.58 201.14 225.83 200.11 224.35L200.11 224.35Z" fill="#BDD1E7" fill-opacity="1.000000" fill-rule="evenodd"/>
		</g>
		<path id="Vector" d="M190.87 222.66C191.27 224.84 192.49 226.51 192.68 228.11C193.01 230.87 191.55 233.65 188.56 233.68L168.97 233.87C170.01 226.57 180.48 230.61 184 222.52L188.55 222.8L190.87 222.66Z" fill="url(#paint_linear_20_13009_0)" fill-opacity="1.000000" fill-rule="evenodd"/>
		<path id="Vector" d="M190.87 222.65C191.27 224.65 192.49 226.17 192.68 227.64C193.01 230.18 191.55 232.72 188.56 232.75L168.97 232.92C170.01 226.23 180.48 229.94 184 222.52L188.55 222.78L190.87 222.65Z" fill="url(#paint_linear_20_13010_0)" fill-opacity="1.000000" fill-rule="evenodd"/>
		<g opacity="0.500000">
			<path id="Vector" d="M190.87 222.65C191 223.3 191.22 223.9 191.46 224.47C189.9 226.47 185.08 226.6 181.98 225.19C182.77 224.5 183.46 223.64 184 222.52L188.55 222.77L190.87 222.64L190.87 222.65Z" fill="#BDD1E7" fill-opacity="1.000000" fill-rule="evenodd"/>
		</g>
		<path id="Vector" d="M173.47 129.23C171.19 143.65 171.37 157.51 173.04 171.2C173.98 178.98 180.58 217.73 182.94 223.35C184.35 224.75 189.91 224.57 191.32 223.11C191.85 193.3 187.44 164.67 194.56 133.52C196.32 127.86 192.72 124.1 187.06 122.33C181.4 120.57 175.23 123.57 173.47 129.23L173.47 129.23Z" fill="url(#paint_linear_20_13013_0)" fill-opacity="1.000000" fill-rule="evenodd"/>
		<g opacity="0.500000">
			<path id="Vector" d="M185.46 131.03C185.29 132.14 180.1 197.62 191.33 223.11C191.86 193.3 187.44 164.67 194.56 133.52C194.26 130.67 187.64 125.18 185.46 131.03Z" fill="url(#paint_linear_20_13014_0)" fill-opacity="1.000000" fill-rule="evenodd"/>
		</g>
		<path id="Vector" d="M184.1 128.38C189.33 168.8 196.37 196.47 200.13 221.67C201.36 224.24 208.27 223.64 209.25 222.01C208.1 173.34 209.59 162.29 205.28 131.3C203.52 127.78 202.73 126.85 196.82 127.27C190.91 127.69 183.68 122.47 184.1 128.38L184.1 128.38Z" fill="url(#paint_linear_20_13015_0)" fill-opacity="1.000000" fill-rule="evenodd"/>
		<g opacity="0.500000">
			<path id="Vector" d="M209.25 222.01C208.1 173.34 209.6 162.29 205.29 131.3C203.52 127.78 206.48 125.35 200.57 125.77C202.64 150.76 206.4 209.91 209.25 222L209.25 222.01Z" fill="url(#paint_linear_20_13016_0)" fill-opacity="1.000000" fill-rule="evenodd"/>
		</g>
		<path id="Vector" d="M205.24 94.61C205.29 99.67 205.25 106.83 205.28 113.88C205.34 125.43 207.04 133.88 207.68 144.8C197.09 147.57 181.47 148.02 171.23 144.04C171.17 135.34 173.16 124.47 173.13 114.11C173.08 101.11 173.14 85.42 173.75 82.76C174.82 78.09 177.42 75.23 181.17 74.14C183.85 73.36 190.28 73.09 193.28 73.2C199.13 73.44 207.41 75.13 211.58 79.98C213.87 82.63 214.53 84.8 215.78 88.15C215.88 93.83 214.51 96.99 210.47 98.35C208.15 96.47 206.93 95.34 205.24 94.6L205.24 94.61Z" fill="url(#paint_linear_20_13017_0)" fill-opacity="1.000000" fill-rule="evenodd"/>
		<g opacity="0.350000">
			<path id="Vector" d="M171.34 144.09L171.23 144.05C171.17 135.34 173.16 124.48 173.13 114.11C173.1 106.34 173.11 97.6 173.25 91.26C174.25 90.38 175.33 89.46 176.49 88.51C178.35 103.07 178.38 127.03 171.34 144.09Z" fill="url(#paint_linear_20_13018_0)" fill-opacity="1.000000" fill-rule="evenodd"/>
		</g>
		<g opacity="0.350000">
			<path id="Vector" d="M205.24 94.61C205.29 99.67 205.25 106.83 205.28 113.89C205.34 125.43 207.04 133.89 207.68 144.8L207.47 144.86C200.67 126.78 200.4 105.46 201.62 86.58C206.68 89.09 211.04 92.42 213.99 95.98C213.16 97.06 212.01 97.84 210.47 98.36C208.14 96.48 206.92 95.35 205.24 94.62L205.24 94.61Z" fill="url(#paint_linear_20_13019_0)" fill-opacity="1.000000" fill-rule="evenodd"/>
		</g>
		<path id="Vector" d="M195.2 66.88C195.3 68.89 195.69 71.64 196.05 73.63C195.17 76.68 192.28 79.03 189.44 78.65C187.01 78.32 186.42 74.67 187.25 72.63C187.37 71.64 187.42 70.81 187.44 69.81L193.61 68.01L195.2 66.88Z" fill="url(#paint_linear_20_13022_0)" fill-opacity="1.000000" fill-rule="evenodd"/>
		<path id="Vector" d="M195.28 66.82C195.31 67.41 195.39 69.24 195.42 69.77C192.79 73.49 189.17 74.81 186.97 73.62C187.24 72.6 187.42 70.8 187.44 69.8L193.61 68L195.28 66.81L195.28 66.82Z" fill="url(#paint_linear_20_13023_0)" fill-opacity="1.000000" fill-rule="evenodd"/>
		<path id="Vector" d="M195.82 64.99C197.42 64.85 197.67 64.23 197.73 63.11C197.8 61.96 197.85 62.26 198.27 61.27C198.48 60.79 198.58 60.35 198.61 59.93C198.75 58.5 198.24 57.79 197.98 56.79C197.66 55.55 198.06 54.94 198.06 54.08C198.03 49.91 193.76 47.48 190.64 50.28C188.66 48.29 186.57 48.83 184.98 50.45C182.39 49.74 180.31 50.48 179.29 52.62C177.32 56.78 180.99 59.33 183.24 59.66L190.88 62.4L195.82 64.99L195.82 64.99Z" fill="url(#paint_linear_20_13024_0)" fill-opacity="1.000000" fill-rule="evenodd"/>
		<path id="Vector" d="M195.82 64.99C197.42 64.85 197.67 64.23 197.73 63.11C197.8 61.96 197.85 62.26 198.27 61.27C198.48 60.79 198.58 60.35 198.62 59.93C198.75 58.5 198.24 57.79 197.98 56.79L197.97 56.75C197.48 58.65 195.56 59.53 194.73 57.3C193.51 56.79 192.59 55.99 192.13 54.89C191.54 53.49 190.71 52.86 189.21 53.78C185.76 55.9 183.24 58.73 179.05 56.53C179.82 58.36 181.81 59.46 183.24 59.67L190.88 62.41L195.82 65L195.82 64.99Z" fill="#48202D" fill-opacity="1.000000" fill-rule="evenodd"/>
		<path id="Vector" d="M182.36 59.42C183.19 63.44 183.7 67.66 186.29 70.97C187.23 72.18 188.36 72.78 190.35 71.72C191.73 70.99 193.08 69.88 194.29 68.95C196.12 67.52 195.59 66.78 195.73 65.96C195.79 65.63 195.92 65.25 196.13 64.79C196.68 63.6 197.88 62.64 197.55 61.27C197.24 60.01 196.12 59.61 195.88 60.6C195.55 61.98 194.58 64.43 193.97 57.81C192.44 57.21 192.1 56.91 191.47 55.97C190.87 55.06 190.3 54.37 189.28 55.35C187.19 57.35 185.42 59.23 182.37 59.43L182.36 59.42Z" fill="url(#paint_linear_20_13027_0)" fill-opacity="1.000000" fill-rule="evenodd"/>
		<path id="Vector" d="M182.36 59.42C182.44 59.81 182.52 60.21 182.6 60.61C186.61 60.18 188.05 57.96 190.06 55.72C191.36 56.98 191.7 57.35 193.29 58.21C193.38 58.66 193.61 61.21 194.26 62.31C194.78 63.21 195.26 62.92 195.65 62.18C195.92 61.68 196.24 59.67 197.26 60.59C196.81 59.89 196.06 59.81 195.87 60.59C195.54 61.97 194.57 64.42 193.96 57.81C192.43 57.21 192.09 56.9 191.47 55.97C190.86 55.05 190.29 54.36 189.27 55.34C187.18 57.35 185.41 59.22 182.36 59.43L182.36 59.42Z" fill="#DA9569" fill-opacity="1.000000" fill-rule="evenodd"/>
		<path id="Vector" d="M199.67 117.53C193.88 118.44 193.9 116.69 190.88 117.12C188.17 117.5 185.76 118.91 183.32 120.17C180.09 121.83 181.31 122.89 183.49 122.27C185.19 121.78 187.04 121.04 188.78 120.61C186.34 121.74 185.14 121.41 186.34 123.43C187.24 124.96 188.52 127.03 189.74 127.03C191.16 127.03 193.79 126.41 195.53 125.8C196.71 125.38 197.02 125.02 198.21 123.65C198.71 123.08 199.18 122.83 200.96 122.51L200.22 119.65L199.67 117.53L199.67 117.53Z" fill="url(#paint_linear_20_13029_0)" fill-opacity="1.000000" fill-rule="evenodd"/>
		<path id="Vector" d="M157.56 117.29L171.77 118.58C173.57 118.74 173.94 118.73 175.6 119.41L186.9 124.05C187.23 124.17 187.46 124.27 187.56 124.35C187.65 124.42 187.64 124.58 187.64 124.72C187.65 124.89 187.65 125.09 187.61 125.1C187.45 125.14 187.01 124.59 186.47 124.57L174.39 124.07C172.82 124 172.59 124.05 171.12 123.48L157.7 118.21C157.22 118.02 156.76 118.32 156.6 118.13C156.55 118.07 156.57 117.47 156.6 117.42C156.64 117.3 156.93 117.24 157.55 117.29L157.56 117.29Z" fill="#96CCE7" fill-opacity="1.000000" fill-rule="evenodd"/>
		<path id="Vector" d="M157.56 117.91L171.77 119.19C173.57 119.35 173.94 119.34 175.6 120.02L186.9 124.66C187.96 125.05 187.92 125.24 186.47 125.18L174.4 124.67C172.83 124.61 172.59 124.66 171.12 124.08L157.7 118.82C156.63 118.4 155.93 117.76 157.55 117.91L157.56 117.91Z" fill="url(#paint_linear_20_13033_0)" fill-opacity="1.000000" fill-rule="evenodd"/>
		<path id="Vector" d="M163.19 120.96C162.58 122.63 162.27 122.54 163.16 123.49C163.94 124.32 165.82 126.05 167.21 126.67C168.22 127.11 169.29 127.28 170.55 126.91C172.56 126.32 173.35 126.09 175.42 124.4C176.23 123.73 175.88 123.63 173.94 123.31C173.01 123.17 171.98 123.02 171.12 122.49C169.4 121.46 167.57 121.55 165.93 121.84C165.31 121.95 165.24 121.77 164.79 121.6L163.18 120.96L163.19 120.96Z" fill="url(#paint_linear_20_13034_0)" fill-opacity="1.000000" fill-rule="evenodd"/>
		<path id="Vector" d="M200.28 89.87C209.77 97.13 213.89 101.33 213.89 105.77C213.89 109.8 208.15 114.05 198.04 116.89C196.4 117.41 197.49 123.38 199.26 123.44C207.87 122.64 221.81 120.71 225.81 109.77C229.49 99.67 218.99 87.04 211.16 79.58C207.59 76.17 202.48 74.16 198.9 78.99C196.54 82.17 197.1 87.51 200.28 89.88L200.28 89.87Z" fill="url(#paint_linear_20_13035_0)" fill-opacity="1.000000" fill-rule="evenodd"/>
		<g opacity="0.350000">
			<path id="Vector" d="M201.38 90.72C210.09 97.46 213.88 101.51 213.89 105.77C213.89 108.56 211.13 111.47 206.07 113.93C205.44 114.24 203.95 114.9 202.38 115.49C200.59 116.16 198.7 116.75 197.81 117.06C212.87 118.95 232.14 101.71 201.62 86.58C201.53 87.95 201.45 89.33 201.38 90.72L201.38 90.72Z" fill="url(#paint_linear_20_13036_0)" fill-opacity="1.000000" fill-rule="evenodd"/>
		</g>
	</g>
</svg>
