<svg width="14.000000" height="20.000000" viewBox="0 0 14 20" fill="none" xmlns="http://www.w3.org/2000/svg" xmlns:xlink="http://www.w3.org/1999/xlink">
	<desc>
			Created with Pixso.
	</desc>
	<defs/>
	<path id="Union" d="M7 0C3.12988 0 0 3.12988 0 7C0 12.25 7 20 7 20C7 20 14 12.25 14 7C14 3.12988 10.8701 0 7 0ZM2 7C2 4.23999 4.24023 2 7 2C9.75977 2 12 4.23999 12 7C12 9.87988 9.12012 14.1899 7 16.8799C4.91992 14.21 2 9.8501 2 7ZM7 9.5C8.38086 9.5 9.5 8.38062 9.5 7C9.5 5.61938 8.38086 4.5 7 4.5C5.61914 4.5 4.5 5.61938 4.5 7C4.5 8.38062 5.61914 9.5 7 9.5Z" clip-rule="evenodd" fill="#FFFFFF" fill-opacity="1.000000" fill-rule="evenodd"/>
</svg>
