<svg width="29.000000" height="29.000000" viewBox="0 0 29 29" fill="none" xmlns="http://www.w3.org/2000/svg" xmlns:xlink="http://www.w3.org/1999/xlink">
	<desc>
			Created with Pixso.
	</desc>
	<defs>
		<clipPath id="clip9_8969">
			<rect id="mdi:book-outline" width="29.000000" height="29.000000" fill="white" fill-opacity="0"/>
		</clipPath>
	</defs>
	<rect id="mdi:book-outline" width="29.000000" height="29.000000" fill="#FFFFFF" fill-opacity="1.000000"/>
	<g clip-path="url(#clip9_8969)">
		<path id="Vector" d="M21.74 2.41C22.39 2.41 23 2.67 23.45 3.12C23.91 3.57 24.16 4.19 24.16 4.83L24.16 24.16C24.16 24.8 23.91 25.42 23.45 25.87C23 26.32 22.39 26.58 21.74 26.58L7.24 26.58C6.6 26.58 5.99 26.32 5.54 25.87C5.08 25.42 4.83 24.8 4.83 24.16L4.83 4.83C4.83 4.19 5.08 3.57 5.54 3.12C5.99 2.67 6.6 2.41 7.24 2.41L21.74 2.41ZM21.74 4.83L15.7 4.83L15.7 14.49L12.68 11.78L9.66 14.49L9.66 4.83L7.24 4.83L7.24 24.16L21.74 24.16L21.74 4.83Z" fill="#F1B287" fill-opacity="1.000000" fill-rule="nonzero"/>
	</g>
</svg>
