<svg width="38.000000" height="38.000000" viewBox="0 0 38 38" fill="none" xmlns="http://www.w3.org/2000/svg" xmlns:xlink="http://www.w3.org/1999/xlink">
	<desc>
			Created with Pixso.
	</desc>
	<defs>
		<clipPath id="clip25_7350">
			<rect id="foundation:arrow-up" width="38.000000" height="38.000000" transform="matrix(-6.12323e-17 -1 -1 6.12323e-17 38 38)" fill="white" fill-opacity="0"/>
		</clipPath>
	</defs>
	<rect id="foundation:arrow-up" width="38.000000" height="38.000000" transform="matrix(-6.12323e-17 -1 -1 6.12323e-17 38 38)" fill="#FFFFFF" fill-opacity="0"/>
	<g clip-path="url(#clip25_7350)">
		<path id="Vector" d="M17.81 11.76L17.81 9.13C17.81 8.77 18.01 8.44 18.33 8.28C18.49 8.19 18.66 8.16 18.84 8.17C19.01 8.19 19.18 8.25 19.33 8.35L33.16 18.25C33.29 18.34 33.39 18.45 33.46 18.59C33.53 18.72 33.56 18.87 33.56 19.03L33.56 19.03C33.56 19.18 33.53 19.33 33.46 19.47C33.39 19.6 33.29 19.72 33.16 19.81L19.32 29.64C19.18 29.75 19.01 29.81 18.84 29.82C18.66 29.83 18.49 29.79 18.33 29.71C18.17 29.63 18.04 29.51 17.95 29.36C17.86 29.21 17.81 29.04 17.81 28.86L17.81 24.23L15.81 24.23L5.38 24.23C5.26 24.23 5.13 24.21 5.02 24.16C4.9 24.11 4.8 24.04 4.71 23.95C4.62 23.87 4.55 23.76 4.5 23.64C4.45 23.53 4.43 23.4 4.43 23.28L4.43 14.71C4.43 14.59 4.45 14.46 4.5 14.35C4.55 14.23 4.62 14.13 4.71 14.04C4.8 13.95 4.9 13.88 5.02 13.83C5.13 13.78 5.26 13.76 5.38 13.76L17.81 13.76L17.81 11.76ZM30.81 19.02L19.81 26.84L19.81 22.23L6.43 22.23L6.43 15.76L19.81 15.76L19.81 11.16L30.81 19.02Z" fill="#FFFFFF" fill-opacity="1.000000" fill-rule="evenodd"/>
	</g>
</svg>
