<svg width="38.000000" height="38.000000" viewBox="0 0 38 38" fill="none" xmlns="http://www.w3.org/2000/svg" xmlns:xlink="http://www.w3.org/1999/xlink">
	<desc>
			Created with Pixso.
	</desc>
	<defs>
		<clipPath id="clip25_7394">
			<rect id="foundation:arrow-up" width="38.000000" height="38.000000" transform="translate(0.000000 38.000000) rotate(-90.000000)" fill="white" fill-opacity="0"/>
		</clipPath>
	</defs>
	<rect id="foundation:arrow-up" width="38.000000" height="38.000000" transform="translate(0.000000 38.000000) rotate(-90.000000)" fill="#FFFFFF" fill-opacity="0"/>
	<g clip-path="url(#clip25_7394)">
		<path id="Vector" d="M18.66 8.35L4.83 18.25C4.7 18.34 4.6 18.45 4.53 18.59C4.46 18.72 4.43 18.87 4.43 19.03L4.43 19.03C4.43 19.18 4.46 19.33 4.53 19.47C4.6 19.6 4.7 19.72 4.83 19.81L18.67 29.64C18.81 29.75 18.98 29.81 19.15 29.82C19.33 29.83 19.5 29.79 19.66 29.71C19.82 29.63 19.95 29.51 20.04 29.36C20.13 29.21 20.18 29.04 20.18 28.86L20.18 24.23L32.61 24.23C32.73 24.23 32.86 24.21 32.97 24.16C33.09 24.11 33.19 24.04 33.28 23.95C33.37 23.87 33.44 23.76 33.49 23.64C33.54 23.53 33.56 23.4 33.56 23.28L33.56 14.71C33.56 14.59 33.54 14.46 33.49 14.35C33.44 14.23 33.37 14.13 33.28 14.04C33.19 13.95 33.09 13.88 32.97 13.83C32.86 13.78 32.73 13.76 32.61 13.76L20.18 13.76L20.18 9.13C20.18 8.77 19.98 8.44 19.66 8.28C19.5 8.19 19.33 8.16 19.15 8.17C18.98 8.19 18.81 8.25 18.66 8.35Z" fill="#E36746" fill-opacity="0" fill-rule="nonzero"/>
		<path id="Vector" d="M20.18 11.76L20.18 9.13C20.18 8.77 19.98 8.44 19.66 8.28C19.5 8.19 19.33 8.16 19.15 8.17C18.98 8.19 18.81 8.25 18.66 8.35L4.83 18.25C4.7 18.34 4.6 18.45 4.53 18.59C4.46 18.72 4.43 18.87 4.43 19.03L4.43 19.03C4.43 19.18 4.46 19.33 4.53 19.47C4.6 19.6 4.7 19.72 4.83 19.81L18.67 29.64C18.81 29.75 18.98 29.81 19.15 29.82C19.33 29.83 19.5 29.79 19.66 29.71C19.82 29.63 19.95 29.51 20.04 29.36C20.13 29.21 20.18 29.04 20.18 28.86L20.18 24.23L22.18 24.23L32.61 24.23C32.73 24.23 32.86 24.21 32.97 24.16C33.09 24.11 33.19 24.04 33.28 23.95C33.37 23.87 33.44 23.76 33.49 23.64C33.54 23.53 33.56 23.4 33.56 23.28L33.56 14.71C33.56 14.59 33.54 14.46 33.49 14.35C33.44 14.23 33.37 14.13 33.28 14.04C33.19 13.95 33.09 13.88 32.97 13.83C32.86 13.78 32.73 13.76 32.61 13.76L20.18 13.76L20.18 11.76ZM7.18 19.02L18.18 26.84L18.18 22.23L31.56 22.23L31.56 15.76L18.18 15.76L18.18 11.16L7.18 19.02Z" fill="#E36746" fill-opacity="1.000000" fill-rule="evenodd"/>
	</g>
</svg>
